<svg xmlns="http://www.w3.org/2000/svg" width="800" height="450" viewBox="0 0 800 450">
  <rect width="800" height="450" fill="#0a0a0a"/>
  <circle cx="300" cy="175" r="8" fill="none" stroke="white" stroke-width="2" opacity="0.9"/>
  <circle cx="300" cy="225" r="8" fill="none" stroke="white" stroke-width="2" opacity="0.9"/>
  <circle cx="300" cy="275" r="8" fill="none" stroke="white" stroke-width="2" opacity="0.9"/>
  <circle cx="400" cy="160" r="8" fill="none" stroke="white" stroke-width="2" opacity="0.9"/>
  <circle cx="400" cy="225" r="8" fill="none" stroke="white" stroke-width="2" opacity="0.9"/>
  <circle cx="400" cy="290" r="8" fill="none" stroke="white" stroke-width="2" opacity="0.9"/>
  <circle cx="500" cy="200" r="8" fill="none" stroke="white" stroke-width="2" opacity="0.9"/>
  <circle cx="500" cy="250" r="8" fill="none" stroke="white" stroke-width="2" opacity="0.9"/>
  <line x1="308" y1="175" x2="392" y2="160" stroke="white" stroke-width="1" opacity="0.2"/>
  <line x1="308" y1="175" x2="392" y2="225" stroke="white" stroke-width="1" opacity="0.2"/>
  <line x1="308" y1="175" x2="392" y2="290" stroke="white" stroke-width="1" opacity="0.2"/>
  <line x1="308" y1="225" x2="392" y2="160" stroke="white" stroke-width="1" opacity="0.2"/>
  <line x1="308" y1="225" x2="392" y2="225" stroke="white" stroke-width="1" opacity="0.2"/>
  <line x1="308" y1="225" x2="392" y2="290" stroke="white" stroke-width="1" opacity="0.2"/>
  <line x1="308" y1="275" x2="392" y2="160" stroke="white" stroke-width="1" opacity="0.2"/>
  <line x1="308" y1="275" x2="392" y2="225" stroke="white" stroke-width="1" opacity="0.2"/>
  <line x1="308" y1="275" x2="392" y2="290" stroke="white" stroke-width="1" opacity="0.2"/>
  <line x1="408" y1="160" x2="492" y2="200" stroke="white" stroke-width="1" opacity="0.2"/>
  <line x1="408" y1="160" x2="492" y2="250" stroke="white" stroke-width="1" opacity="0.2"/>
  <line x1="408" y1="225" x2="492" y2="200" stroke="white" stroke-width="1" opacity="0.2"/>
  <line x1="408" y1="225" x2="492" y2="250" stroke="white" stroke-width="1" opacity="0.2"/>
  <line x1="408" y1="290" x2="492" y2="200" stroke="white" stroke-width="1" opacity="0.2"/>
  <line x1="408" y1="290" x2="492" y2="250" stroke="white" stroke-width="1" opacity="0.2"/>
</svg>
